<svg width="17" height="18" viewBox="0 0 17 18" fill="none" xmlns="http://www.w3.org/2000/svg">
<path d="M7.71026 1.23228C8.00245 0.52674 8.99759 0.526741 9.28978 1.23228L11.0142 5.3965C11.1375 5.69394 11.416 5.89717 11.7357 5.92291L16.2118 6.28333C16.9702 6.34439 17.2777 7.29494 16.6999 7.79206L13.2896 10.7261C13.046 10.9357 12.9396 11.2645 13.014 11.5778L14.0559 15.9648C14.2324 16.7081 13.4274 17.2956 12.7781 16.8973L8.94588 14.5464C8.67215 14.3784 8.3279 14.3784 8.05418 14.5464L4.22195 16.8973C3.57265 17.2956 2.76757 16.7081 2.9441 15.9648L3.98602 11.5778C4.06044 11.2645 3.95406 10.9357 3.71048 10.7261L0.300104 7.79206C-0.277711 7.29494 0.0298078 6.34439 0.788199 6.28333L5.26436 5.92291C5.58409 5.89717 5.8626 5.69394 5.98577 5.3965L7.71026 1.23228Z" fill="#FFE550"/>
</svg>
